<?xml version="1.0" standalone="no"?>
<!DOCTYPE svg PUBLIC "-//W3C//DTD SVG 20010904//EN"
 "http://www.w3.org/TR/2001/REC-SVG-20010904/DTD/svg10.dtd">
<svg version="1.0" xmlns="http://www.w3.org/2000/svg"
 width="50.000000pt" height="50.000000pt" viewBox="0 0 50.000000 50.000000"
 preserveAspectRatio="xMidYMid meet">

<g transform="translate(0.000000,50.000000) scale(0.100000,-0.100000)"
fill="#000000" stroke="none">
<path d="M52 444 c-32 -22 -52 -67 -52 -116 0 -59 26 -163 52 -210 33 -59 60
-72 157 -75 103 -3 142 13 180 72 14 23 46 60 70 83 42 40 43 43 38 89 -4 37
-12 54 -37 76 -29 25 -39 29 -77 24 -49 -5 -88 -34 -97 -73 -5 -19 -13 -24
-37 -24 -20 0 -40 -10 -59 -29 l-29 -28 -40 50 c-47 57 -51 70 -18 62 16 -4
29 1 46 19 28 30 22 55 -18 79 -36 21 -50 21 -79 1z m78 -24 l25 -19 -23 -23
c-19 -20 -24 -21 -32 -8 -8 13 -11 13 -26 -1 -21 -22 -13 -47 33 -101 20 -24
40 -53 46 -65 12 -28 27 -30 27 -4 0 10 10 31 22 46 18 23 26 26 60 22 35 -5
38 -3 38 20 0 36 51 83 90 83 43 0 90 -47 90 -90 0 -29 -36 -79 -66 -91 -5 -2
-19 -22 -30 -44 -12 -22 -36 -50 -54 -63 -30 -20 -42 -22 -124 -18 -89 4 -92
5 -119 38 -34 41 -56 110 -64 205 -6 70 -5 72 25 102 35 36 48 38 82 11z"/>
</g>
</svg>
